# xmcd CD database file
#
# Track frame offsets:
#	150
#	22443
#	36530
#	53631
#	73778
#	87355
#	111347
#	124761
#	139045
#	147165
#	162821
#	183865
#	196580
#	216308
#
# Disc length: 2943 seconds
#
# Revision: 2
# Processed by: cddbd v1.4PL0 Copyright (c) Steve Scherf et al.
# Submitted via: CDex 1.51
#
DISCID=d10b7d0e
DTITLE=Various Artist - Legends of the Incredible Lap Steel Guitar
DYEAR=2002
DGENRE=Country
TTITLE0=Gary Brandin - In The Dark
TTITLE1=Harry Manx - Only Then Will Your House Be Blessed
TTITLE2=Bobbe Seymour - There'll Be No Teardrops Tonight
TTITLE3=Orville Johnson - Mardi Barch
TTITLE4=Bob Brozman - It Happened In Monterey
TTITLE5=Greg Leisz - Santo's Dream
TTITLE6=Tom Morrell - Steel Guitar Rag
TTITLE7=Stacey Phillips - Flambee Montalbanaise
TTITLE8=Herb Remington - Hula Blues
TTITLE9=Cindy Cashdollar - Locust Grove
TTITLE10=Ken Emerson - Ka Loke De La Corazon
TTITLE11=Kayton Roberts - Bells of St. Mary's
TTITLE12=Jeff Lang - London
TTITLE13=The Fugitive Steeler - Saturday Night Shuffle
EXTD=YEAR: 2002
EXTT0=
EXTT1=
EXTT2=
EXTT3=
EXTT4=
EXTT5=
EXTT6=
EXTT7=
EXTT8=
EXTT9=
EXTT10=
EXTT11=
EXTT12=
EXTT13=
PLAYORDER=
